[img]http://www.hotimg.com/direct/XDUaPVy.jpeg[/img]
[code] 
http://imdb.com/title/tt1602098/

Glenn Close plays a woman passing as a man in order to work and survive in 19th century Ireland. Some thirty years after donning men's clothing, she finds herself trapped in a prison of her own making.

Format : Matroska
Format version : Version 2
File size : 792 MiB
Duration : 1h 53mn
Overall bit rate : 975 Kbps
Writing application : HandBrake 0.9.5
Writing library : libmkv 0.6.4.1

Video
ID : 1
Format : AVC
Format/Info : Advanced Video Codec
Format profile : High@L3.0
Format settings, CABAC : Yes
Format settings, ReFrames : 6 frames
Codec ID : V_MPEG4/ISO/AVC
Duration : 1h 53mn
Bit rate : 764 Kbps
Width : 720 pixels
Height : 370 pixels
Display aspect ratio : 2.35:1
Original display aspect ratio : 2.35:1
Frame rate mode : Variable
Frame rate : 29.970 fps
Color space : YUV
Chroma subsampling : 4:2:0
Bit depth : 8 bits
Scan type : Progressive
Bits/(Pixel*Frame) : 0.096
Stream size : 620 MiB (78%)
Writing library : x264 core 112


Audio
ID : 2
Format : AC-3
Format/Info : Audio Coding 3
Mode extension : CM (complete main)
Codec ID : A_AC3
Duration : 1h 53mn
Bit rate mode : Constant
Bit rate : 192 Kbps
Channel(s) : 2 channels
Channel positions : Front: L R
Sampling rate : 48.0 KHz
Bit depth : 16 bits
Compression mode : Lossy
Stream size : 156 MiB (20%)

[/code]
Screens:
[img]http://www.hotimg.com/direct/HhR3Pc4.png[/img]
[img]http://www.hotimg.com/direct/YjMZK2X.png[/img]
[img]http://www.hotimg.com/direct/bzcJSVg.png[/img]